<svg width="53" height="53" viewBox="0 0 53 53" fill="none" xmlns="http://www.w3.org/2000/svg">
<rect width="53" height="53" rx="10" fill="white"/>
<path d="M29.75 25.5V21C29.75 20.0054 29.3549 19.0516 28.6517 18.3483C27.9484 17.6451 26.9946 17.25 26 17.25C25.0054 17.25 24.0516 17.6451 23.3483 18.3483C22.6451 19.0516 22.25 20.0054 22.25 21V25.5M33.606 23.507L34.869 35.507C34.939 36.172 34.419 36.75 33.75 36.75H18.25C18.0922 36.7502 17.9361 36.7171 17.7919 36.6531C17.6478 36.589 17.5186 36.4953 17.413 36.3781C17.3074 36.2608 17.2276 36.1227 17.1789 35.9726C17.1301 35.8226 17.1134 35.6639 17.13 35.507L18.394 23.507C18.4232 23.2306 18.5536 22.9747 18.7603 22.7888C18.9669 22.6028 19.235 22.4999 19.513 22.5H32.487C33.063 22.5 33.546 22.935 33.606 23.507ZM22.625 25.5C22.625 25.5995 22.5855 25.6948 22.5152 25.7652C22.4448 25.8355 22.3495 25.875 22.25 25.875C22.1505 25.875 22.0552 25.8355 21.9848 25.7652C21.9145 25.6948 21.875 25.5995 21.875 25.5C21.875 25.4005 21.9145 25.3052 21.9848 25.2348C22.0552 25.1645 22.1505 25.125 22.25 25.125C22.3495 25.125 22.4448 25.1645 22.5152 25.2348C22.5855 25.3052 22.625 25.4005 22.625 25.5V25.5ZM30.125 25.5C30.125 25.5995 30.0855 25.6948 30.0152 25.7652C29.9448 25.8355 29.8495 25.875 29.75 25.875C29.6505 25.875 29.5552 25.8355 29.4848 25.7652C29.4145 25.6948 29.375 25.5995 29.375 25.5C29.375 25.4005 29.4145 25.3052 29.4848 25.2348C29.5552 25.1645 29.6505 25.125 29.75 25.125C29.8495 25.125 29.9448 25.1645 30.0152 25.2348C30.0855 25.3052 30.125 25.4005 30.125 25.5V25.5Z" stroke="#FF3811" stroke-width="1.5" stroke-linecap="round" stroke-linejoin="round"/>
</svg>
